<?xml version="1.0" standalone="no"?>
<!DOCTYPE svg PUBLIC "-//W3C//DTD SVG 20010904//EN"
 "http://www.w3.org/TR/2001/REC-SVG-20010904/DTD/svg10.dtd">
<svg version="1.0" xmlns="http://www.w3.org/2000/svg"
 width="164.000000pt" height="164.000000pt" viewBox="0 0 164.000000 164.000000"
 preserveAspectRatio="xMidYMid meet">
<metadata>
Created by potrace 1.10, written by Peter Selinger 2001-2011
</metadata>
<g transform="translate(0.000000,164.000000) scale(0.100000,-0.100000)"
fill="#ffffff" stroke="none">
<path d="M426 1368 c-20 -12 -21 -44 0 -52 9 -3 36 -6 60 -6 90 0 84 28 84
-388 l0 -368 -25 -51 c-19 -37 -36 -56 -63 -69 -51 -25 -135 -23 -189 4 -49
25 -67 53 -58 89 6 24 8 25 56 19 48 -7 52 -5 85 28 26 26 34 42 34 71 0 82
-52 137 -129 138 -63 1 -108 -26 -138 -82 -77 -146 44 -323 239 -350 77 -11
188 3 240 30 58 30 114 85 140 137 22 46 23 56 28 417 l5 370 116 -1 c187 -1
234 -39 234 -189 0 -142 -49 -192 -200 -204 -75 -6 -80 -8 -83 -30 -5 -34 12
-41 106 -41 94 0 142 -18 186 -70 34 -40 41 -69 41 -155 -1 -142 -60 -195
-230 -204 -100 -6 -100 -6 -103 -33 -3 -24 1 -28 34 -34 51 -9 229 3 298 21
159 42 236 125 236 256 0 98 -81 198 -185 229 -69 21 -95 32 -95 41 0 5 6 9
14 9 23 0 109 48 144 81 42 39 62 89 62 154 0 134 -93 217 -261 234 -110 12
-661 11 -683 -1z"/>
</g>
</svg>
